<svg width="133" height="57" viewBox="0 0 133 57" fill="none" xmlns="http://www.w3.org/2000/svg">
<mask id="mask0_19_126" style="mask-type:luminance" maskUnits="userSpaceOnUse" x="0" y="0" width="133" height="57">
<path d="M0.254028 56.898C0.254028 56.898 15.49 17.283 30.449 2.04599C30.449 2.04599 106.633 0.384995 128.797 0.106995C128.797 0.106995 134.891 1.585 130.826 8.418L105.341 50.712C105.341 50.712 101.277 56.898 94.26 56.898C87.241 56.898 0.254028 56.898 0.254028 56.898Z" fill="white"/>
</mask>
<g mask="url(#mask0_19_126)">
<path opacity="0.25" d="M90.6621 -11.767L48.5801 78.479H86.3011L128.383 -11.767H90.6621Z" fill="white"/>
<path opacity="0.25" d="M32.152 -11.767L-9.92896 78.479H3.51204L45.594 -11.767H32.152Z" fill="white"/>
<path opacity="0.25" d="M146.969 -11.767L104.887 78.479H127.098L169.182 -11.767H146.969Z" fill="white"/>
<path opacity="0.25" d="M59.914 -11.767L17.832 78.479H26.504L68.588 -11.767H59.914Z" fill="white"/>
<path opacity="0.25" d="M71.7871 -11.767L29.7051 78.479H35.2931L77.3731 -11.767H71.7871Z" fill="white"/>
</g>
</svg>
