<svg width="596" height="245" viewBox="0 0 596 245" fill="none" xmlns="http://www.w3.org/2000/svg">
<path opacity="0.15" d="M297.345 214.014C135.483 214.014 4.27203 220.9 4.27203 229.392C4.27203 237.886 135.483 244.771 297.345 244.771C459.203 244.771 590.418 237.886 590.418 229.392C590.418 220.9 459.203 214.014 297.345 214.014Z" fill="#404041"/>
<path d="M68.321 181.886L192.086 193.299L428.856 198.471L547.844 199.408L558.926 173.528L547.844 122.814L499.162 108.524H51.936L68.321 181.886Z" fill="#162026"/>
<path d="M592.213 143.433C592.213 143.433 590.09 114.346 580.254 101.186C580.254 101.186 574.298 95.092 556.291 90.936C556.291 90.936 504.947 79.162 446.401 75.098C446.401 75.098 407.247 47.303 365.136 22.647C365.136 22.647 338.728 11.197 304.374 11.197C304.374 11.197 88.354 5.34696 45.731 14.741C45.299 14.836 44.914 15.067 44.62 15.395L42.278 18.008C41.69 18.663 41.903 19.699 42.697 20.074L44.431 20.89C45.1 21.205 45.272 22.08 44.762 22.6189C40.403 27.2249 23.593 46.143 16.067 71.436C15.712 72.637 15.521 73.882 15.521 75.1359V127.92C15.521 127.92 6.11801 128.878 1.89101 134.606L0.286011 149.528C0.286011 149.528 1.48501 168.183 12.196 171.691C12.196 171.691 50.405 179.854 68.32 181.886C68.32 181.886 70.424 156.099 77.442 137.445C77.442 137.445 85.887 115.177 119.871 115.177C119.871 115.177 168.997 114.807 175.278 133.276C175.278 133.276 182.85 153.776 185.989 177.601L192.085 193.299L428.855 198.47L431.072 182.218C431.072 182.218 435.504 138.631 447.694 128.658C447.694 128.658 456.744 120.902 485.552 120.902C485.552 120.902 533.574 119.978 539.484 141.031C539.484 141.031 547.425 162.825 547.979 194.777H582.884C582.884 194.777 587.226 190.991 588.888 187.205L587.872 183.233L591.197 170.398H593.227C593.227 170.398 595.167 169.474 595.167 167.166C595.167 166.984 595.167 166.838 595.167 166.705L595.72 147.312C595.72 147.312 594.336 144.819 592.213 143.433Z" fill="#558AA2"/>
<g opacity="0.2">
<path d="M593.229 170.398C593.229 170.398 595.169 169.474 595.169 167.166C595.169 166.984 595.169 166.838 595.169 166.705L595.722 147.312C595.722 147.312 594.337 144.819 592.214 143.433C592.214 143.433 592.079 141.604 591.726 138.657L537.578 136.817C538.408 138.115 539.059 139.515 539.486 141.033C539.486 141.033 547.427 162.826 547.981 194.776H582.886C582.886 194.776 587.228 190.991 588.89 187.205L587.874 183.233L591.199 170.398H593.229Z" fill="#909596"/>
<path d="M77.443 137.445C77.443 137.445 80.927 128.263 92.418 121.691L15.523 119.078V127.92C15.523 127.92 6.12002 128.878 1.89302 134.606L0.288025 149.528C0.288025 149.528 1.48702 168.183 12.198 171.691C12.198 171.691 50.407 179.854 68.322 181.886C68.322 181.886 70.425 156.1 77.443 137.445Z" fill="#909596"/>
<path d="M431.072 182.219C431.072 182.219 434.498 148.548 443.603 133.624L166.971 124.224C170.985 126.577 174.008 129.541 175.279 133.276C175.279 133.276 182.851 153.776 185.99 177.601L192.086 193.299L428.856 198.47L431.072 182.219Z" fill="#909596"/>
</g>
<path d="M273.539 5.67003C190.799 -3.93397 80.678 3.916 80.678 3.916C72.367 5.578 67.936 14.442 67.936 14.442H93.422L96.053 9.29402C96.574 8.27602 97.574 7.59201 98.711 7.48201C136.27 3.85501 229.265 7.016 244.92 7.585C246.3 7.635 247.527 8.471 248.078 9.736L249.53 13.057H284.021C278.895 7.10202 273.539 5.67003 273.539 5.67003Z" fill="#4C7B91"/>
<path opacity="0.2" d="M24.021 52.013H412.318C398.662 43.071 382.142 32.603 365.136 22.647C365.136 22.647 338.728 11.197 304.374 11.197C304.374 11.197 88.354 5.34696 45.731 14.741C45.299 14.836 44.914 15.067 44.62 15.395L42.278 18.008C41.69 18.663 41.903 19.699 42.697 20.074L44.431 20.89C45.1 21.205 45.272 22.08 44.762 22.6189C41.615 25.9459 31.971 36.744 24.021 52.013Z" fill="white"/>
<path d="M33.254 73.898C33.254 73.898 48.49 34.283 63.449 19.046C63.449 19.046 139.633 17.385 161.797 17.107C161.797 17.107 167.891 18.585 163.826 25.418L138.341 67.712C138.341 67.712 134.277 73.898 127.26 73.898C120.241 73.898 33.254 73.898 33.254 73.898Z" fill="#312935"/>
<path d="M174.74 56.82C175.603 53.733 176.978 50.722 178.129 47.834C180.869 40.933 183.787 34.039 187.397 27.54C187.96 26.526 188.54 25.522 189.155 24.539C189.469 24.039 190.794 22.643 190.794 22.095C190.794 22.095 193.38 17.109 200.028 17.109C200.028 17.109 289.092 18.079 331.895 23.203C331.895 23.203 351.656 26.528 364.032 36.962L400.598 67.16C400.598 67.16 412.049 83.412 393.396 86.367C374.743 89.321 190.977 79.534 190.977 79.534C190.977 79.534 185.438 78.979 181.928 75.101C179.676 72.612 176.127 69.831 174.676 66.796C174.371 66.161 174.209 65.468 174.094 64.773C173.647 62.084 174.012 59.425 174.74 56.82Z" fill="#312935"/>
<path d="M365.364 22.781L362.119 23.884C361.185 24.201 361.037 25.456 361.873 25.979C370.045 31.098 400.885 50.743 431.269 74.405C432.453 75.326 433.927 75.792 435.425 75.709L446.401 75.099C446.401 75.099 407.387 47.403 365.364 22.781Z" fill="#312935"/>
<path opacity="0.4" d="M419.16 77.5L418.135 74.158C417.18 71.048 415.268 68.319 412.672 66.359L363.291 29.111C363.291 29.111 347.963 18.4 319.52 15.629L184.791 12.674C184.791 12.674 164.566 47.303 159.027 77.223C159.027 77.223 156.439 101.357 155.302 119.522C164.727 122.169 172.948 126.426 175.279 133.276C175.279 133.276 182.851 153.776 185.99 177.601L189.611 186.928H413.894L419.16 168.367C419.16 168.367 430.242 118.501 419.16 77.5ZM418.084 168.097L413.059 185.82H190.369L187.071 177.324C183.973 153.954 176.552 133.531 176.324 132.906C174.216 126.732 167.538 121.957 156.465 118.705C157.592 101.233 160.004 78.511 160.123 77.384C165.193 50.075 182.813 18.39 185.424 13.797L319.455 16.737C346.85 19.414 362.109 29.647 362.643 30.011L412.209 67.4C414.486 69.118 416.162 71.512 417 74.239L418.094 77.807C423.77 98.817 423.467 122.237 422.213 138.185C420.885 155.093 418.234 167.403 418.084 168.097Z" fill="#909596"/>
<path d="M433.287 91.167C433.287 91.167 432.387 99.27 434.603 101.948L458.914 102.087C458.914 102.087 464.963 98.37 465.332 93.384C465.332 93.384 465.055 91.537 461.916 91.537L435.875 90.059C435.875 90.059 433.381 90.409 433.287 91.167Z" fill="#1F1916"/>
<path d="M33.254 73.898H15.523C15.523 73.898 11.688 99.926 15.523 127.92H31.364C31.364 127.92 30.711 85.89 33.254 73.898Z" fill="#A41E22"/>
<path opacity="0.2" d="M543.203 154.482H595.517L595.72 147.312C595.72 147.312 594.335 144.819 592.212 143.433C592.212 143.433 592.202 143.326 592.187 143.125H540.18C540.875 145.326 542.01 149.209 543.203 154.482Z" fill="white"/>
<path d="M576.113 170.398C575.264 170.398 574.535 171.005 574.383 171.84L573.117 178.737C572.929 179.759 573.612 180.739 574.637 180.918L587.873 183.233L591.198 170.398H576.113Z" fill="#529496"/>
<path d="M576.113 170.921C575.264 170.921 574.535 171.527 574.383 172.362L573.117 179.258C572.929 180.281 573.612 181.26 574.637 181.439L587.873 183.755L591.198 170.92L576.113 170.921Z" fill="#3C7273"/>
<path d="M592.188 143.125C591.946 140.185 589.796 116.821 581.934 103.707C579.629 103.185 576.047 102.798 574.491 102.534C573.075 102.293 571.86 103.54 572.12 104.952C576.29 127.608 575.976 143.124 575.976 143.124H592.188V143.125Z" fill="#EBE7C7"/>
<path d="M583.26 143.125C582.393 126.658 576.551 107.385 575.04 102.628C574.852 102.596 574.666 102.563 574.49 102.534C573.074 102.293 571.859 103.54 572.119 104.952C576.289 127.608 575.975 143.124 575.975 143.124H583.26V143.125Z" fill="#F6921E"/>
<path opacity="0.5" d="M590.977 142.017H587.84H577.086C577.065 138.027 576.719 123.82 573.21 104.752C573.137 104.362 573.308 104.088 573.416 103.958C573.598 103.738 573.862 103.612 574.141 103.612C574.194 103.612 574.25 103.617 574.305 103.626C576.121 103.935 579.451 104.29 581.225 104.684L582.66 104.975C582.425 104.543 582.184 104.12 581.934 103.707C579.629 103.185 576.047 102.798 574.491 102.534C574.372 102.513 574.255 102.504 574.141 102.504C572.88 102.504 571.881 103.658 572.119 104.952C576.289 127.608 575.975 143.124 575.975 143.124H592.188C592.169 142.886 592.135 142.503 592.089 142.016H590.977V142.017Z" fill="#404041"/>
<path d="M583.465 197.296L582.885 194.777H547.98L547.844 199.408H581.783C582.893 199.408 583.715 198.377 583.465 197.296Z" fill="#404041"/>
<path opacity="0.4" d="M33.254 73.898H28.088H15.523L15.315 75.732C15.315 75.732 21.071 75.732 24.221 75.732C27.369 75.732 27.178 80.714 27.178 80.714C25.719 97.099 26.198 127.92 26.198 127.92H31.364C31.364 127.92 30.711 85.89 33.254 73.898Z" fill="#909596"/>
<path opacity="0.3" d="M71.869 157.701L0.66803 152.665C1.53703 158.133 4.24403 169.085 12.197 171.691C12.197 171.691 50.406 179.854 68.321 181.886C68.321 181.886 69.234 170.681 71.869 157.701Z" fill="#909596"/>
<path opacity="0.2" d="M547.635 143.125H550.655C550.142 139.4 549.252 134.965 547.72 130.113C542.642 114.014 523.259 105.936 507.566 102.283C490.941 98.4129 472.814 98.924 456.795 104.84C436.6 112.298 424.859 132.721 425.621 153.288C425.621 153.298 425.621 153.308 425.621 153.318C426.61 148.142 428.605 143.51 430.426 138.446C432.178 133.565 434.959 129.635 438.601 125.824C444.854 119.279 453.67 115.429 462.536 113.525C472.505 111.382 482.802 110.63 493.001 111.282C507.284 112.195 522.987 115.808 534.717 124.136C540.005 127.89 544.32 132.894 546.32 138.95L547.635 143.125Z" fill="white"/>
<g opacity="0.4">
<path d="M161.797 17.107C139.633 17.385 63.449 19.046 63.449 19.046C48.49 34.283 33.254 73.898 33.254 73.898C33.254 73.898 120.241 73.898 127.26 73.898C134.278 73.898 138.341 67.712 138.341 67.712L163.826 25.418C167.891 18.585 161.797 17.107 161.797 17.107ZM162.102 24.378L136.642 66.624C136.369 67.019 132.859 71.883 127.26 71.883H36.229C39.905 62.844 52.258 33.836 64.325 21.043C72.638 20.863 140.46 19.396 161.499 19.127C161.89 19.272 162.751 19.672 163.069 20.457C163.426 21.335 163.08 22.73 162.102 24.378Z" fill="#909596"/>
<path d="M400.598 67.158L364.03 36.96C351.656 26.526 331.895 23.201 331.895 23.201C289.092 18.077 200.028 17.107 200.028 17.107C193.38 17.107 190.794 22.093 190.794 22.093C190.794 22.641 189.469 24.038 189.155 24.537C188.54 25.52 187.96 26.524 187.397 27.538C183.788 34.037 180.87 40.931 178.129 47.832C176.979 50.72 175.602 53.731 174.74 56.818C174.011 59.423 173.647 62.082 174.094 64.769C174.209 65.464 174.371 66.158 174.676 66.792C176.127 69.827 179.676 72.608 181.928 75.097C185.438 78.976 190.977 79.531 190.977 79.531C190.977 79.531 329.709 86.919 378.325 86.919C385.66 86.919 390.951 86.751 393.396 86.364C412.049 83.41 400.598 67.158 400.598 67.158ZM401.58 79.575C400.544 82.03 397.682 83.644 393.08 84.374C390.855 84.726 385.891 84.905 378.324 84.905C330.711 84.905 194.719 77.711 191.145 77.522C190.718 77.467 186.203 76.82 183.421 73.747C182.709 72.96 181.913 72.182 181.07 71.359C179.245 69.578 177.357 67.734 176.493 65.925C176.319 65.561 176.192 65.104 176.083 64.44C175.732 62.328 175.921 60.078 176.681 57.362C177.299 55.149 178.222 52.915 179.113 50.754C179.416 50.021 179.715 49.296 180.002 48.577C182.591 42.061 185.491 35.121 189.158 28.517C189.767 27.418 190.326 26.466 190.858 25.615C190.912 25.535 191.101 25.3 191.24 25.128C191.947 24.249 192.474 23.553 192.694 22.835C193.211 22.026 195.389 19.127 200.017 19.123C201.519 19.14 289.525 20.168 331.601 25.196C332.624 25.378 351.205 28.782 362.747 38.515L399.096 68.531C400.445 70.545 403.154 75.858 401.58 79.575Z" fill="#909596"/>
</g>
<path opacity="0.2" d="M308.184 98.951C307.987 103.343 303.111 106.692 297.289 106.432C291.467 106.171 286.906 102.401 287.103 98.009C287.298 93.616 292.177 90.267 298 90.528C303.82 90.787 308.381 94.559 308.184 98.951Z" fill="#404041"/>
<path d="M311.607 95.954L283.406 94.694C282.41 94.649 281.568 95.421 281.522 96.417L281.418 98.728C281.375 99.723 282.147 100.567 283.143 100.612L311.344 101.872C312.34 101.917 313.184 101.145 313.228 100.149L313.331 97.838C313.375 96.842 312.603 95.998 311.607 95.954Z" fill="#D0D2D3"/>
<path opacity="0.2" d="M281.463 97.756L281.418 98.727C281.375 99.722 282.147 100.566 283.143 100.611L311.344 101.871C312.34 101.916 313.184 101.144 313.228 100.148L313.27 99.178L281.463 97.756Z" fill="#404041"/>
<path opacity="0.2" d="M287.911 94.8729L287.251 94.8436L286.989 100.761L287.648 100.79L287.911 94.8729Z" fill="#404041"/>
<path d="M286.006 97.839C285.969 98.621 285.309 99.225 284.528 99.19C283.748 99.155 283.143 98.494 283.179 97.714C283.212 96.934 283.874 96.329 284.655 96.364C285.435 96.398 286.041 97.06 286.006 97.839Z" fill="#404041"/>
<path opacity="0.2" d="M200.69 94.146C200.494 98.539 195.615 101.887 189.794 101.627C183.973 101.365 179.412 97.595 179.609 93.204C179.804 88.812 184.683 85.463 190.505 85.724C196.327 85.982 200.887 89.754 200.69 94.146Z" fill="#404041"/>
<path d="M204.113 91.148L175.912 89.887C174.916 89.843 174.073 90.614 174.027 91.61L173.924 93.921C173.88 94.917 174.652 95.76 175.646 95.805L203.848 97.065C204.845 97.11 205.688 96.339 205.733 95.342L205.836 93.031C205.881 92.036 205.109 91.193 204.113 91.148Z" fill="#D0D2D3"/>
<path opacity="0.2" d="M173.969 92.951L173.925 93.922C173.881 94.918 174.653 95.761 175.647 95.806L203.849 97.066C204.846 97.111 205.689 96.34 205.734 95.343L205.777 94.373L173.969 92.951Z" fill="#404041"/>
<path opacity="0.2" d="M180.399 90.1089L179.741 90.0791L179.473 95.9972L180.131 96.0269L180.399 90.1089Z" fill="#404041"/>
<path d="M178.512 93.035C178.477 93.816 177.815 94.42 177.035 94.385C176.254 94.351 175.649 93.689 175.684 92.909C175.718 92.128 176.379 91.523 177.16 91.558C177.941 91.594 178.547 92.255 178.512 93.035Z" fill="#404041"/>
<path opacity="0.2" d="M1.89301 134.605C31.173 131.188 66.172 131.551 80.721 131.897C81.645 130.664 82.788 129.308 84.19 127.919H15.523C15.523 127.919 6.11901 128.878 1.89301 134.605Z" fill="white"/>
<path opacity="0.2" d="M186.803 127.031C181.726 110.931 162.342 102.853 146.65 99.201C130.024 95.33 111.897 95.84 95.878 101.758C83.216 106.434 73.878 116.21 68.86 127.92H73.401C74.657 126.126 76.081 124.42 77.682 122.743C83.934 116.197 92.752 112.349 101.616 110.444C111.587 108.302 121.884 107.551 132.081 108.201C146.366 109.113 162.067 112.726 173.798 121.055C179.087 124.809 183.401 129.813 185.401 135.869L190.337 151.499C190.337 151.499 191.199 140.974 186.803 127.031Z" fill="white"/>
<path opacity="0.3" d="M192.086 193.299L428.856 198.471L429.654 192.62L191.023 190.563L192.086 193.299Z" fill="#909596"/>
<path opacity="0.3" d="M183.182 161.506C184.261 166.535 185.25 171.976 185.991 177.601L192.087 193.299L428.857 198.47L431.074 182.218C431.074 182.218 431.892 174.187 433.787 164.234L183.182 161.506Z" fill="#909596"/>
<path opacity="0.3" d="M588.889 187.205L587.873 183.233L591.198 170.398H593.228C593.228 170.398 594.779 169.654 595.103 167.842H545.716C546.886 175.555 547.804 184.655 547.979 194.776H582.884C582.884 194.776 587.227 190.991 588.889 187.205Z" fill="#909596"/>
<path d="M416.66 119.58L278.742 116.499C277.61 116.474 276.673 117.371 276.646 118.503L276.632 119.105C276.608 120.238 277.503 121.175 278.638 121.201L416.554 124.282C417.687 124.306 418.624 123.409 418.65 122.278L418.664 121.676C418.69 120.543 417.791 119.605 416.66 119.58Z" fill="#6CA4B7"/>
<path d="M265.507 116.203L193.325 114.59C192.193 114.565 191.256 115.462 191.229 116.594L191.216 117.197C191.191 118.329 192.085 119.267 193.218 119.292L265.402 120.904C266.535 120.93 267.472 120.032 267.498 118.901L267.512 118.298C267.537 117.167 266.641 116.228 265.507 116.203Z" fill="#6CA4B7"/>
<path opacity="0.4" d="M265.402 120.905L193.218 119.293C192.172 119.27 191.333 118.46 191.234 117.442C191.224 117.523 191.207 117.603 191.205 117.686L191.192 118.29C191.168 119.421 192.064 120.359 193.195 120.385L265.379 121.998C266.511 122.023 267.449 121.126 267.474 119.994L267.489 119.39C267.491 119.307 267.477 119.227 267.469 119.145C267.324 120.158 266.45 120.928 265.402 120.905Z" fill="#909596"/>
<path opacity="0.4" d="M416.555 124.282L278.639 121.201C277.59 121.178 276.752 120.368 276.653 119.351C276.641 119.432 276.626 119.511 276.624 119.595L276.61 120.197C276.585 121.33 277.482 122.268 278.614 122.293L416.53 125.375C417.663 125.401 418.601 124.503 418.628 123.371L418.641 122.768C418.642 122.685 418.63 122.604 418.62 122.523C418.475 123.534 417.604 124.305 416.555 124.282Z" fill="#909596"/>
<path d="M388.629 73.191L384.43 79.511L386.069 87.952C386.256 88.903 387.087 89.59 388.058 89.59H397.358C397.358 89.59 403.641 84.369 403.737 79.511C403.834 74.653 388.629 73.191 388.629 73.191Z" fill="#162026"/>
<path d="M373.752 76.338L372.215 61.403C372.215 61.403 372.182 58.969 376.565 58.518C376.565 58.518 386.299 58.642 389.965 62.764C389.965 62.764 395.257 70.094 397.358 78.972C397.358 78.972 396.575 82.896 393.881 82.986C393.881 82.986 384.095 83.43 379.377 81.665C379.377 81.665 374.057 79.306 373.752 76.338Z" fill="#558AA2"/>
<path opacity="0.2" d="M376.565 58.518C376.143 58.562 375.763 58.623 375.418 58.7C378.469 61.705 387.279 71.148 390.741 83.034C392.597 83.044 393.881 82.986 393.881 82.986C396.574 82.897 397.358 78.972 397.358 78.972C395.257 70.095 389.965 62.764 389.965 62.764C386.299 58.643 376.565 58.518 376.565 58.518Z" fill="white"/>
<path opacity="0.3" d="M581.934 103.707C579.629 103.185 576.047 102.798 574.491 102.534C573.581 102.379 572.755 102.842 572.349 103.566C576.114 107.273 583.342 115.363 590.147 128.411C588.617 120.311 586.063 110.596 581.934 103.707Z" fill="white"/>
<path opacity="0.2" d="M580.254 101.186C580.254 101.186 574.298 95.092 556.291 90.936C556.291 90.936 504.947 79.162 446.401 75.098C446.401 75.098 452.968 84.44 470.607 86.92C486.25 89.12 542.531 94.125 581.247 102.609C580.926 102.118 580.595 101.642 580.254 101.186Z" fill="white"/>
<path d="M14.451 117.938H19.148C20.707 117.938 21.97 116.674 21.97 115.114V112.1C21.97 110.539 20.706 109.275 19.148 109.275H13.957C14.058 112.084 14.217 114.982 14.451 117.938Z" fill="#EBE7C7"/>
<path d="M14.012 92.069H19.149C20.708 92.069 21.971 90.805 21.971 89.245V86.231C21.971 84.671 20.707 83.407 19.149 83.407H14.529C14.33 85.907 14.145 88.825 14.012 92.069Z" fill="#EBE7C7"/>
<mask id="mask0_1_5" style="mask-type:luminance" maskUnits="userSpaceOnUse" x="173" y="17" width="232" height="70">
<path d="M174.74 56.82C175.603 53.733 176.978 50.722 178.129 47.834C180.869 40.933 183.787 34.039 187.397 27.54C187.96 26.526 188.54 25.522 189.155 24.539C189.469 24.039 190.794 22.643 190.794 22.095C190.794 22.095 193.38 17.109 200.028 17.109C200.028 17.109 289.092 18.079 331.895 23.203C331.895 23.203 351.656 26.528 364.032 36.962L400.598 67.16C400.598 67.16 412.049 83.412 393.396 86.367C374.743 89.321 190.977 79.534 190.977 79.534C190.977 79.534 185.438 78.979 181.928 75.101C179.676 72.612 176.127 69.831 174.676 66.796C174.371 66.161 174.209 65.468 174.094 64.773C173.647 62.084 174.012 59.425 174.74 56.82Z" fill="white"/>
</mask>
<g mask="url(#mask0_1_5)">
<path opacity="0.25" d="M294.451 2.69202L244.75 109.274H289.3L339 2.69202H294.451Z" fill="white"/>
<path opacity="0.25" d="M225.352 2.69202L175.649 109.274H191.523L241.223 2.69202H225.352Z" fill="white"/>
<path opacity="0.25" d="M360.953 2.69202L311.252 109.274H337.484L387.185 2.69202H360.953Z" fill="white"/>
<path opacity="0.25" d="M258.137 2.69202L208.438 109.274H218.679L268.38 2.69202H258.137Z" fill="white"/>
<path opacity="0.25" d="M272.158 2.69202L222.459 109.274H229.058L278.758 2.69202H272.158Z" fill="white"/>
</g>
<path d="M267.299 18.855C264.875 32.806 262.672 65.608 261.621 83.007C269.725 83.378 278.118 83.752 286.57 84.114C284.554 59.217 287.61 28.954 288.648 19.836C281.582 19.464 274.384 19.138 267.299 18.855Z" fill="#1F1916"/>
<path opacity="0.4" d="M278.352 15.88L277.352 15.768C277.25 16.679 267.222 107.758 274.633 185.868L275.637 185.772C268.234 107.768 278.252 16.79 278.352 15.88Z" fill="#909596"/>
<mask id="mask1_1_5" style="mask-type:luminance" maskUnits="userSpaceOnUse" x="33" y="17" width="133" height="57">
<path d="M33.254 73.898C33.254 73.898 48.49 34.283 63.449 19.046C63.449 19.046 139.633 17.385 161.797 17.107C161.797 17.107 167.891 18.585 163.826 25.418L138.341 67.712C138.341 67.712 134.277 73.898 127.26 73.898C120.241 73.898 33.254 73.898 33.254 73.898Z" fill="white"/>
</mask>
<g mask="url(#mask1_1_5)">
<path opacity="0.25" d="M123.662 5.23303L81.58 95.479H119.301L161.383 5.23303H123.662Z" fill="white"/>
<path opacity="0.25" d="M65.152 5.23303L23.071 95.479H36.512L78.594 5.23303H65.152Z" fill="white"/>
<path opacity="0.25" d="M179.969 5.23303L137.887 95.479H160.098L202.182 5.23303H179.969Z" fill="white"/>
<path opacity="0.25" d="M92.914 5.23303L50.832 95.479H59.504L101.588 5.23303H92.914Z" fill="white"/>
<path opacity="0.25" d="M104.787 5.23303L62.705 95.479H68.293L110.373 5.23303H104.787Z" fill="white"/>
</g>
</svg>
