<svg width="101" height="100" viewBox="0 0 101 100" fill="none" xmlns="http://www.w3.org/2000/svg">
<path d="M100.194 50.235C100.194 77.646 77.978 99.863 50.566 99.863C23.158 99.863 0.937012 77.645 0.937012 50.235C0.937012 22.828 23.158 0.604004 50.566 0.604004C77.978 0.604004 100.194 22.829 100.194 50.235Z" fill="#29212C"/>
<path d="M50.566 0.604004C23.158 0.604004 0.937012 22.828 0.937012 50.235C0.937012 77.646 23.158 99.863 50.566 99.863C77.978 99.863 100.194 77.645 100.194 50.235C100.194 22.829 77.978 0.604004 50.566 0.604004ZM83.076 82.744C78.853 86.967 73.935 90.282 68.461 92.597C62.797 94.993 56.775 96.208 50.566 96.208C44.357 96.208 38.337 94.993 32.672 92.597C27.197 90.282 22.28 86.967 18.058 82.743C13.835 78.521 10.519 73.604 8.20401 68.13C5.80601 62.464 4.59201 56.443 4.59201 50.235C4.59201 44.027 5.80601 38.007 8.20401 32.342C10.518 26.867 13.835 21.95 18.058 17.726C22.281 13.503 27.199 10.187 32.672 7.87201C38.337 5.47501 44.357 4.26001 50.566 4.26001C56.775 4.26001 62.796 5.47501 68.461 7.87201C73.936 10.187 78.854 13.503 83.076 17.726C87.297 21.95 90.613 26.867 92.929 32.342C95.324 38.007 96.538 44.027 96.538 50.235C96.538 56.444 95.323 62.464 92.929 68.13C90.614 73.604 87.297 78.521 83.076 82.744Z" fill="#3F3643"/>
<path d="M50.566 11.514C29.216 11.514 11.846 28.884 11.846 50.236C11.846 71.585 29.216 88.955 50.566 88.955C71.916 88.955 89.285 71.585 89.285 50.236C89.285 28.884 71.916 11.514 50.566 11.514ZM84.278 50.235C84.278 54.788 83.386 59.202 81.631 63.356C79.934 67.371 77.502 70.977 74.406 74.073C71.308 77.17 67.703 79.602 63.688 81.299C59.535 83.056 55.119 83.9471 50.566 83.9471C46.013 83.9471 41.597 83.055 37.443 81.299C33.43 79.602 29.826 77.1701 26.728 74.0721C23.629 70.9761 21.199 67.37 19.501 63.356C17.744 59.202 16.853 54.788 16.853 50.235C16.853 45.682 17.745 41.267 19.501 37.114C21.198 33.099 23.629 29.493 26.728 26.396C29.826 23.298 33.431 20.867 37.443 19.168C41.599 17.411 46.013 16.52 50.566 16.52C55.119 16.52 59.535 17.412 63.688 19.168C67.703 20.866 71.308 23.298 74.406 26.395C77.502 29.493 79.933 33.099 81.631 37.113C83.387 41.268 84.278 45.683 84.278 50.235Z" fill="#3F3643"/>
<path d="M85.073 50.23C85.025 69.288 69.537 84.737 50.479 84.737C31.423 84.737 16.011 69.288 16.059 50.23C16.106 31.172 31.594 15.724 50.65 15.724C69.71 15.724 85.121 31.173 85.073 50.23Z" fill="#D0D2D3"/>
<path d="M81.367 50.231C81.326 67.241 67.502 81.032 50.49 81.032C33.478 81.032 19.722 67.241 19.765 50.231C19.807 33.218 33.63 19.43 50.642 19.43C67.654 19.43 81.41 33.219 81.367 50.231Z" fill="#29212C"/>
<path d="M81.359 53.464L81.377 46.996H70.352C70.139 45.663 69.794 44.374 69.331 43.142L78.889 37.631L75.668 32.029L66.107 37.541C65.265 36.509 64.324 35.564 63.295 34.72L68.829 25.174L63.236 21.941L57.703 31.484C56.471 31.018 55.183 30.67 53.849 30.453L53.877 19.43H47.408L47.38 30.453C46.047 30.669 44.756 31.017 43.522 31.484L38.036 21.941L32.429 25.174L37.917 34.72C36.882 35.564 35.935 36.51 35.087 37.541L25.556 32.029L22.307 37.631L31.837 43.142C31.368 44.374 31.017 45.663 30.798 46.996H19.775L19.758 53.464H30.78C30.994 54.799 31.339 56.089 31.801 57.321L22.244 62.831L25.463 68.434L35.024 62.922C35.866 63.953 36.809 64.898 37.838 65.743L32.303 75.287L37.897 78.521L43.428 68.978C44.661 69.444 45.948 69.793 47.283 70.009L47.256 81.032H53.723L53.752 70.009C55.086 69.793 56.377 69.444 57.609 68.978L63.096 78.521L68.704 75.287L63.216 65.743C64.251 64.897 65.197 63.952 66.045 62.922L75.577 68.434L78.825 62.831L69.296 57.321C69.765 56.089 70.114 54.799 70.335 53.464H81.359Z" fill="#919396"/>
<path d="M59.982 50.231C59.968 55.431 55.744 59.6469 50.543 59.6469C45.342 59.6469 41.137 55.431 41.148 50.231C41.162 45.03 45.388 40.814 50.589 40.814C55.791 40.814 59.996 45.03 59.982 50.231Z" fill="#29212C"/>
<path d="M50.566 65.175C42.326 65.175 35.627 58.472 35.627 50.235C35.627 41.996 42.326 35.294 50.566 35.294C58.804 35.294 65.505 41.996 65.505 50.235C65.506 58.472 58.805 65.175 50.566 65.175ZM50.566 36.905C43.215 36.905 37.236 42.885 37.236 50.236C37.236 57.585 43.216 63.565 50.566 63.565C57.916 63.565 63.894 57.585 63.894 50.236C63.895 42.885 57.916 36.905 50.566 36.905Z" fill="#D0D2D3"/>
<path d="M56.035 50.231C56.028 53.252 53.573 55.7 50.553 55.7C47.532 55.7 45.09 53.252 45.096 50.231C45.104 47.209 47.559 44.761 50.58 44.761C53.601 44.761 56.043 47.21 56.035 50.231Z" fill="#CBCDCE"/>
<path d="M50.566 30.643C39.763 30.643 30.974 39.432 30.974 50.235C30.974 61.037 39.763 69.826 50.566 69.826C61.369 69.826 70.158 61.037 70.158 50.235C70.158 39.432 61.369 30.643 50.566 30.643ZM67.623 50.235C67.623 52.539 67.174 54.772 66.283 56.874C65.426 58.905 64.195 60.729 62.629 62.296C61.061 63.863 59.236 65.093 57.206 65.952C55.103 66.841 52.869 67.291 50.566 67.291C48.261 67.291 46.029 66.84 43.927 65.952C41.896 65.093 40.072 63.863 38.503 62.296C36.937 60.729 35.706 58.904 34.847 56.873C33.959 54.771 33.509 52.538 33.509 50.234C33.509 47.929 33.959 45.696 34.847 43.594C35.706 41.564 36.937 39.739 38.503 38.171C40.071 36.604 41.896 35.374 43.927 34.514C46.029 33.625 48.263 33.175 50.566 33.175C52.869 33.175 55.103 33.626 57.206 34.514C59.236 35.373 61.06 36.604 62.629 38.171C64.195 39.738 65.426 41.564 66.283 43.594C67.174 45.698 67.623 47.932 67.623 50.235Z" fill="#D0D2D3"/>
<path d="M50.648 16.847C32.212 16.847 17.227 31.794 17.183 50.231C17.136 68.669 32.046 83.615 50.482 83.615C68.919 83.615 83.9041 68.669 83.9501 50.231C83.996 31.793 69.086 16.847 50.648 16.847ZM50.492 80.471C33.79 80.471 20.283 66.932 20.326 50.231C20.367 33.53 33.939 19.991 50.64 19.991C67.342 19.991 80.847 33.53 80.806 50.231C80.766 66.932 67.192 80.471 50.492 80.471Z" fill="#D0D2D3"/>
<path d="M81.359 53.464L81.377 46.996H70.352C70.139 45.663 69.794 44.374 69.331 43.142L78.889 37.631L75.668 32.029L66.107 37.541C65.265 36.509 64.322 35.564 63.295 34.72L68.829 25.174L63.236 21.941L57.703 31.484C56.471 31.018 55.183 30.67 53.849 30.453L53.877 19.43H47.408L47.38 30.453C46.045 30.669 44.756 31.017 43.522 31.484L38.036 21.941L32.429 25.174L37.917 34.72C36.882 35.564 35.935 36.509 35.087 37.541L25.556 32.029L22.307 37.631L31.837 43.142C31.367 44.374 31.017 45.663 30.798 46.996H19.775L19.758 53.464H30.78C30.994 54.799 31.339 56.089 31.801 57.321L22.244 62.831L25.463 68.434L35.024 62.922C35.866 63.953 36.81 64.898 37.838 65.743L32.303 75.287L37.896 78.522L43.428 68.978C44.661 69.444 45.948 69.793 47.283 70.009L47.256 81.032H53.723L53.752 70.009C55.086 69.793 56.377 69.444 57.609 68.978L63.096 78.522L68.704 75.287L63.216 65.743C64.251 64.897 65.197 63.952 66.045 62.922L75.577 68.434L78.825 62.831L69.296 57.321C69.765 56.089 70.114 54.799 70.335 53.464H81.359ZM68.488 58.717L76.619 63.42L74.99 66.231L66.853 61.525L65.668 60.84L64.8 61.897C64.02 62.844 63.146 63.717 62.196 64.494L61.134 65.361L61.818 66.547L66.504 74.696L63.69 76.318L59.008 68.174L58.322 66.984L57.038 67.469C55.893 67.902 54.7 68.22 53.491 68.417L52.139 68.635L52.135 70.005L52.113 79.419H48.872L48.895 70.014L48.897 68.638L47.54 68.418C46.333 68.221 45.142 67.902 44.001 67.47L42.72 66.985L42.032 68.17L37.307 76.319L34.507 74.701L39.233 66.553L39.921 65.366L38.86 64.496C37.915 63.721 37.046 62.849 36.272 61.902L35.405 60.839L34.217 61.524L26.056 66.23L24.444 63.425L32.606 58.718L33.792 58.034L33.31 56.753C32.881 55.609 32.565 54.418 32.372 53.21L32.154 51.851H30.778H21.374L21.382 48.611H30.796H32.163L32.386 47.259C32.585 46.051 32.907 44.859 33.344 43.716L33.833 42.433L32.644 41.745L24.511 37.044L26.14 34.233L34.279 38.937L35.465 39.623L36.334 38.565C37.111 37.617 37.988 36.744 38.936 35.97L39.997 35.102L39.315 33.916L34.63 25.768L37.444 24.146L42.126 32.29L42.81 33.48L44.095 32.994C45.24 32.561 46.433 32.243 47.642 32.047L48.993 31.827L48.997 30.457L49.019 21.043H52.26L52.236 30.45L52.234 31.825L53.591 32.046C54.799 32.242 55.989 32.561 57.132 32.993L58.413 33.478L59.099 32.294L63.826 24.144L66.625 25.763L61.9 33.911L61.212 35.098L62.273 35.968C63.216 36.743 64.087 37.616 64.861 38.562L65.728 39.624L66.916 38.939L75.076 34.234L76.689 37.039L68.527 41.745L67.341 42.43L67.82 43.711C68.254 44.854 68.567 46.046 68.761 47.253L68.978 48.613H70.353H79.759L79.751 51.853H70.337H68.969L68.745 53.204C68.548 54.412 68.225 55.604 67.789 56.749L67.3 58.032L68.488 58.717Z" fill="#D0D2D3"/>
</svg>
