<svg width="101" height="100" viewBox="0 0 101 100" fill="none" xmlns="http://www.w3.org/2000/svg">
<path d="M100.194 50.235C100.194 77.646 77.978 99.863 50.566 99.863C23.158 99.863 0.937012 77.645 0.937012 50.235C0.937012 22.828 23.158 0.604004 50.566 0.604004C77.978 0.604004 100.194 22.829 100.194 50.235Z" fill="#29212C"/>
<path d="M50.566 0.604004C23.158 0.604004 0.937012 22.828 0.937012 50.235C0.937012 77.646 23.158 99.863 50.566 99.863C77.978 99.863 100.194 77.645 100.194 50.235C100.194 22.829 77.978 0.604004 50.566 0.604004ZM83.076 82.744C78.853 86.967 73.935 90.282 68.461 92.597C62.797 94.993 56.775 96.208 50.566 96.208C44.357 96.208 38.337 94.993 32.672 92.597C27.197 90.282 22.28 86.967 18.058 82.743C13.835 78.521 10.519 73.604 8.20401 68.13C5.80601 62.464 4.59201 56.443 4.59201 50.235C4.59201 44.027 5.80601 38.007 8.20401 32.342C10.518 26.867 13.835 21.95 18.058 17.726C22.281 13.503 27.199 10.187 32.672 7.87201C38.337 5.47501 44.357 4.26001 50.566 4.26001C56.775 4.26001 62.796 5.47501 68.461 7.87201C73.936 10.187 78.854 13.503 83.076 17.726C87.297 21.95 90.613 26.867 92.929 32.342C95.324 38.007 96.538 44.027 96.538 50.235C96.538 56.444 95.323 62.464 92.929 68.13C90.614 73.604 87.297 78.521 83.076 82.744Z" fill="#3F3643"/>
<path d="M50.5659 11.514C29.2159 11.514 11.8459 28.884 11.8459 50.236C11.8459 71.585 29.2159 88.955 50.5659 88.955C71.9159 88.955 89.285 71.585 89.285 50.236C89.285 28.884 71.9159 11.514 50.5659 11.514ZM84.278 50.235C84.278 54.788 83.386 59.202 81.631 63.356C79.934 67.371 77.502 70.977 74.406 74.073C71.308 77.17 67.703 79.602 63.688 81.299C59.535 83.056 55.1189 83.9471 50.5659 83.9471C46.0129 83.9471 41.5969 83.055 37.4429 81.299C33.4299 79.602 29.826 77.1701 26.728 74.0721C23.629 70.9761 21.199 67.37 19.501 63.356C17.744 59.202 16.853 54.788 16.853 50.235C16.853 45.682 17.745 41.267 19.501 37.114C21.198 33.099 23.629 29.493 26.728 26.396C29.826 23.298 33.4309 20.867 37.4429 19.168C41.5989 17.411 46.0129 16.52 50.5659 16.52C55.1189 16.52 59.535 17.412 63.688 19.168C67.703 20.866 71.308 23.298 74.406 26.395C77.502 29.493 79.933 33.099 81.631 37.113C83.387 41.268 84.278 45.683 84.278 50.235Z" fill="#3F3643"/>
<path d="M85.0731 50.23C85.0251 69.288 69.5371 84.737 50.4791 84.737C31.4231 84.737 16.0111 69.288 16.0591 50.23C16.1061 31.172 31.5941 15.724 50.6501 15.724C69.7101 15.724 85.1211 31.173 85.0731 50.23Z" fill="#D0D2D3"/>
<path d="M81.367 50.231C81.326 67.241 67.502 81.032 50.49 81.032C33.478 81.032 19.722 67.241 19.765 50.231C19.807 33.218 33.63 19.43 50.642 19.43C67.654 19.43 81.41 33.219 81.367 50.231Z" fill="#29212C"/>
<path d="M81.3591 53.464L81.3771 46.996H70.3521C70.1391 45.663 69.7941 44.374 69.3311 43.142L78.8891 37.631L75.6681 32.029L66.1071 37.541C65.2651 36.509 64.3241 35.564 63.2951 34.72L68.8291 25.174L63.2361 21.941L57.7031 31.484C56.4711 31.018 55.1831 30.67 53.8491 30.453L53.8771 19.43H47.4081L47.3801 30.453C46.0471 30.669 44.7561 31.017 43.5221 31.484L38.0361 21.941L32.4291 25.174L37.9171 34.72C36.8821 35.564 35.9351 36.51 35.0871 37.541L25.5561 32.029L22.3071 37.631L31.8371 43.142C31.3681 44.374 31.0171 45.663 30.7981 46.996H19.7751L19.7581 53.464H30.7801C30.9941 54.799 31.3391 56.089 31.8011 57.321L22.2441 62.831L25.4631 68.434L35.0241 62.922C35.8661 63.953 36.8091 64.898 37.8381 65.743L32.3031 75.287L37.8971 78.521L43.4281 68.978C44.6611 69.444 45.9481 69.793 47.2831 70.009L47.2561 81.032H53.7231L53.7521 70.009C55.0861 69.793 56.3771 69.444 57.6091 68.978L63.0961 78.521L68.7041 75.287L63.2161 65.743C64.2511 64.897 65.1971 63.952 66.0451 62.922L75.5771 68.434L78.8251 62.831L69.2961 57.321C69.7651 56.089 70.1141 54.799 70.3351 53.464H81.3591Z" fill="#919396"/>
<path d="M59.982 50.231C59.968 55.431 55.744 59.6469 50.543 59.6469C45.342 59.6469 41.137 55.431 41.148 50.231C41.162 45.03 45.388 40.814 50.589 40.814C55.791 40.814 59.996 45.03 59.982 50.231Z" fill="#29212C"/>
<path d="M50.5659 65.175C42.3259 65.175 35.627 58.472 35.627 50.235C35.627 41.996 42.3259 35.294 50.5659 35.294C58.8039 35.294 65.505 41.996 65.505 50.235C65.506 58.472 58.8049 65.175 50.5659 65.175ZM50.5659 36.905C43.2149 36.905 37.2359 42.885 37.2359 50.236C37.2359 57.585 43.2159 63.565 50.5659 63.565C57.9159 63.565 63.894 57.585 63.894 50.236C63.895 42.885 57.9159 36.905 50.5659 36.905Z" fill="#D0D2D3"/>
<path d="M56.035 50.231C56.028 53.252 53.573 55.7 50.553 55.7C47.532 55.7 45.09 53.252 45.096 50.231C45.104 47.209 47.559 44.761 50.58 44.761C53.601 44.761 56.043 47.21 56.035 50.231Z" fill="#CBCDCE"/>
<path d="M50.5661 30.643C39.7631 30.643 30.9741 39.432 30.9741 50.235C30.9741 61.037 39.7631 69.826 50.5661 69.826C61.3691 69.826 70.1581 61.037 70.1581 50.235C70.1581 39.432 61.3691 30.643 50.5661 30.643ZM67.6231 50.235C67.6231 52.539 67.1741 54.772 66.2831 56.874C65.4261 58.905 64.1951 60.729 62.6291 62.296C61.0611 63.863 59.2361 65.093 57.2061 65.952C55.1031 66.841 52.8691 67.291 50.5661 67.291C48.2611 67.291 46.0291 66.84 43.9271 65.952C41.8961 65.093 40.0721 63.863 38.5031 62.296C36.9371 60.729 35.7061 58.904 34.8471 56.873C33.9591 54.771 33.5091 52.538 33.5091 50.234C33.5091 47.929 33.9591 45.696 34.8471 43.594C35.7061 41.564 36.9371 39.739 38.5031 38.171C40.0711 36.604 41.8961 35.374 43.9271 34.514C46.0291 33.625 48.2631 33.175 50.5661 33.175C52.8691 33.175 55.1031 33.626 57.2061 34.514C59.2361 35.373 61.0601 36.604 62.6291 38.171C64.1951 39.738 65.4261 41.564 66.2831 43.594C67.1741 45.698 67.6231 47.932 67.6231 50.235Z" fill="#D0D2D3"/>
<path d="M50.648 16.847C32.212 16.847 17.227 31.794 17.183 50.231C17.136 68.669 32.046 83.615 50.482 83.615C68.919 83.615 83.904 68.669 83.95 50.231C83.996 31.793 69.086 16.847 50.648 16.847ZM50.492 80.471C33.79 80.471 20.283 66.932 20.326 50.231C20.367 33.53 33.939 19.991 50.64 19.991C67.342 19.991 80.847 33.53 80.806 50.231C80.766 66.932 67.192 80.471 50.492 80.471Z" fill="#D0D2D3"/>
<path d="M81.3591 53.464L81.3771 46.996H70.3521C70.1391 45.663 69.7941 44.374 69.3311 43.142L78.8891 37.631L75.6681 32.029L66.1071 37.541C65.2651 36.509 64.3221 35.564 63.2951 34.72L68.8291 25.174L63.2361 21.941L57.7031 31.484C56.4711 31.018 55.1831 30.67 53.8491 30.453L53.8771 19.43H47.4081L47.3801 30.453C46.0451 30.669 44.7561 31.017 43.5221 31.484L38.0361 21.941L32.4291 25.174L37.9171 34.72C36.8821 35.564 35.9351 36.509 35.0871 37.541L25.5561 32.029L22.3071 37.631L31.8371 43.142C31.3671 44.374 31.0171 45.663 30.7981 46.996H19.7751L19.7581 53.464H30.7801C30.9941 54.799 31.3391 56.089 31.8011 57.321L22.2441 62.831L25.4631 68.434L35.0241 62.922C35.8661 63.953 36.8101 64.898 37.8381 65.743L32.3031 75.287L37.8961 78.522L43.4281 68.978C44.6611 69.444 45.9481 69.793 47.2831 70.009L47.2561 81.032H53.7231L53.7521 70.009C55.0861 69.793 56.3771 69.444 57.6091 68.978L63.0961 78.522L68.7041 75.287L63.2161 65.743C64.2511 64.897 65.1971 63.952 66.0451 62.922L75.5771 68.434L78.8251 62.831L69.2961 57.321C69.7651 56.089 70.1141 54.799 70.3351 53.464H81.3591ZM68.4881 58.717L76.619 63.42L74.9901 66.231L66.8531 61.525L65.6681 60.84L64.8001 61.897C64.0201 62.844 63.1461 63.717 62.1961 64.494L61.1341 65.361L61.8181 66.547L66.5041 74.696L63.6901 76.318L59.0081 68.174L58.3221 66.984L57.0381 67.469C55.8931 67.902 54.7001 68.22 53.4911 68.417L52.1391 68.635L52.1351 70.005L52.1131 79.419H48.8721L48.8951 70.014L48.8971 68.638L47.5401 68.418C46.3331 68.221 45.1421 67.902 44.0011 67.47L42.7201 66.985L42.0321 68.17L37.3071 76.319L34.5071 74.701L39.2331 66.553L39.9211 65.366L38.8601 64.496C37.9151 63.721 37.0461 62.849 36.2721 61.902L35.4051 60.839L34.2171 61.524L26.0561 66.23L24.4441 63.425L32.6061 58.718L33.7921 58.034L33.3101 56.753C32.8811 55.609 32.5651 54.418 32.3721 53.21L32.1541 51.851H30.7781H21.3741L21.3821 48.611H30.7961H32.1631L32.3861 47.259C32.5851 46.051 32.9071 44.859 33.3441 43.716L33.8331 42.433L32.6441 41.745L24.5111 37.044L26.1401 34.233L34.2791 38.937L35.4651 39.623L36.3341 38.565C37.1111 37.617 37.9881 36.744 38.9361 35.97L39.9971 35.102L39.3151 33.916L34.6301 25.768L37.4441 24.146L42.1261 32.29L42.8101 33.48L44.0951 32.994C45.2401 32.561 46.4331 32.243 47.6421 32.047L48.9931 31.827L48.9971 30.457L49.0191 21.043H52.2601L52.2361 30.45L52.2341 31.825L53.5911 32.046C54.7991 32.242 55.9891 32.561 57.1321 32.993L58.4131 33.478L59.0991 32.294L63.8261 24.144L66.6251 25.763L61.9001 33.911L61.2121 35.098L62.2731 35.968C63.2161 36.743 64.0871 37.616 64.8611 38.562L65.7281 39.624L66.916 38.939L75.076 34.234L76.6891 37.039L68.5271 41.745L67.3411 42.43L67.8201 43.711C68.2541 44.854 68.567 46.046 68.761 47.253L68.9781 48.613H70.3531H79.7591L79.7511 51.853H70.3371H68.9691L68.7451 53.204C68.5481 54.412 68.2251 55.604 67.7891 56.749L67.3 58.032L68.4881 58.717Z" fill="#D0D2D3"/>
</svg>
